<svg width="444" height="87" viewBox="0 0 444 87" fill="none" xmlns="http://www.w3.org/2000/svg">
<path d="M435.812 61.5235C432.831 74.8039 427.41 80.4954 417.111 80.4954L22.4944 85.916C20.0316 85.9414 17.5884 85.475 15.308 84.5442C13.0276 83.6134 10.956 82.2368 9.21434 80.4952C7.47272 78.7536 6.09612 76.6819 5.1653 74.4015C4.23447 72.1211 3.76816 69.678 3.79353 67.2151L1.08325 20.3272C1.13871 17.831 1.5963 15.36 2.43839 13.0095C3.43669 10.7196 4.81077 8.61264 6.50381 6.77583C8.19549 5.03083 10.224 3.64772 12.4664 2.71041C14.6779 1.71669 17.0908 1.25268 19.5131 1.35527L423.616 4.87863C426.026 4.90946 428.413 5.3683 430.663 6.23377C432.905 7.17108 434.934 8.55419 436.625 10.2992C438.379 12.0883 439.76 14.2069 440.691 16.5328C441.621 18.8587 442.082 21.3458 442.046 23.8506L435.812 61.5235Z" fill="#295EAC"/>
<path d="M22.4954 87C17.1966 86.9415 12.1337 84.7995 8.40188 81.0374C4.71408 77.2781 2.6673 72.2099 2.71028 66.9439L0 20.0561C0.0311911 14.8045 2.06715 9.7631 5.6916 5.96262C7.52346 4.07785 9.71438 2.57919 12.135 1.55509C14.5556 0.530999 17.1568 0.00222746 19.7851 0L423.888 3.52336C429.187 3.58185 434.249 5.72381 437.981 9.48598C441.669 13.2453 443.716 18.3135 443.673 23.5794L436.897 61.7944C433.645 75.6168 427.682 81.5794 417.112 81.5794L22.4954 87ZM19.7851 2.43926C17.4706 2.43569 15.1782 2.88892 13.0392 3.77298C10.9002 4.65705 8.95669 5.95456 7.3201 7.59114C5.68352 9.22772 4.38606 11.1712 3.50199 13.3102C2.61793 15.4492 2.1647 17.7416 2.16827 20.0561L4.87855 66.9439C4.87498 69.2584 5.32821 71.5508 6.21227 73.6898C7.09634 75.8288 8.3938 77.7723 10.0304 79.4088C11.667 81.0454 13.6105 82.3429 15.7494 83.227C17.8884 84.1111 20.1809 84.5643 22.4954 84.5607L417.112 79.1402C426.869 79.1402 431.748 73.9907 434.729 61.2523L441.505 23.0374C441.481 18.3689 439.633 13.8946 436.355 10.5701C434.724 8.92514 432.782 7.62233 430.641 6.73807C428.5 5.8538 426.204 5.40587 423.888 5.42056L19.7851 2.43926Z" fill="white"/>
<path d="M110.304 30.0837V51.2239C110.287 51.3711 110.302 51.5203 110.349 51.6609C110.395 51.8015 110.473 51.9299 110.575 52.037C110.604 52.2425 110.699 52.4329 110.846 52.5791C111.253 52.8249 111.732 52.9208 112.202 52.8501H116.267C116.735 52.8923 117.206 52.7982 117.622 52.5791C117.893 52.308 117.893 52.308 117.893 52.037V49.5977C117.924 49.2486 118.076 48.9214 118.324 48.6735C118.572 48.4257 118.899 48.2731 119.248 48.2426H126.024C126.024 48.2426 127.921 48.2426 127.921 49.5977V55.8314C127.963 56.2998 127.869 56.7704 127.65 57.1865C127.379 57.4576 127.379 57.9996 126.837 58.2707C126.528 58.6054 126.161 58.881 125.753 59.0837C125.347 59.3296 124.867 59.4254 124.398 59.3548H103.529C103.06 59.3969 102.59 59.3028 102.173 59.0837C101.902 58.8127 101.36 58.8127 101.089 58.2707C100.755 57.9618 100.479 57.5944 100.276 57.1865C100.03 56.7803 99.9346 56.3009 100.005 55.8314V29.8127C99.9604 29.5769 99.9691 29.3341 100.031 29.1022C100.093 28.8702 100.206 28.6552 100.362 28.473C100.518 28.2907 100.713 28.146 100.933 28.0495C101.153 27.953 101.392 27.9072 101.631 27.9155H109.22C109.426 27.9441 109.616 28.0394 109.762 28.1865C110.033 28.4576 110.033 28.4576 110.033 28.7286C110.21 29.1588 110.302 29.6188 110.304 30.0837Z" fill="white"/>
<path d="M62.6059 28.187H92.961C92.961 28.187 95.4003 28.187 95.6713 29.8132V33.0655C95.6713 33.0655 95.4003 34.4206 93.2321 34.6917H73.1759C72.9049 34.6917 72.3629 34.9627 72.0918 34.9627C71.8208 34.9627 71.5498 35.5048 71.5498 35.7758V38.4861C71.6177 38.8936 71.8065 39.2714 72.0918 39.5702C72.4098 39.7858 72.7939 39.8818 73.1759 39.8412H92.69C93.0641 39.8804 93.426 39.997 93.7527 40.1836C94.0793 40.3703 94.3635 40.6229 94.5872 40.9253C95.1291 41.5153 95.4206 42.2927 95.4003 43.0936V56.1029C95.4003 56.4588 95.3302 56.8112 95.194 57.1401C95.0578 57.4689 94.8581 57.7677 94.6064 58.0194C94.3547 58.271 94.056 58.4707 93.7272 58.6069C93.3984 58.7431 93.0459 58.8132 92.69 58.8132H61.7928C61.7928 58.8132 59.8956 58.5421 59.6245 57.187V53.9347C59.6194 53.6553 59.693 53.3801 59.8368 53.1405C59.9805 52.9009 60.1887 52.7065 60.4377 52.5795C60.8575 52.3276 61.315 52.1446 61.7928 52.0375H81.8489C82.1199 52.0375 82.6619 51.7664 82.933 51.7664C83.0983 51.6375 83.2327 51.4732 83.3265 51.2856C83.4203 51.0981 83.471 50.892 83.475 50.6823V48.2431C83.4072 47.8355 83.2183 47.4578 82.933 47.159C82.804 46.9937 82.6397 46.8592 82.4522 46.7654C82.2646 46.6717 82.0585 46.6209 81.8489 46.6169H62.6059C62.2497 46.6265 61.8957 46.5587 61.5682 46.4184C61.2406 46.278 60.9474 46.0684 60.7087 45.8038C60.2475 45.234 59.8813 44.5933 59.6245 43.9066V30.8973C59.6042 30.0965 59.8958 29.3191 60.4377 28.7291C61.1814 28.6461 61.9106 28.4638 62.6059 28.187V28.187Z" fill="white"/>
<path d="M22.2208 28.458H52.576C52.576 28.458 55.0152 28.458 55.0152 30.0842V33.3365C54.8125 33.7444 54.5369 34.1118 54.2021 34.4206C53.6601 34.6917 53.389 34.9627 52.847 34.9627H32.7909C32.5199 34.9627 31.9778 35.2337 31.7068 35.2337C31.4358 35.2337 31.1647 35.7758 31.1647 36.0468V38.7571C31.2326 39.1646 31.4215 39.5424 31.7068 39.8412C32.0248 40.0568 32.4089 40.1528 32.7909 40.1122H52.305C52.6791 40.1514 53.041 40.268 53.3676 40.4546C53.6943 40.6413 53.9784 40.8939 54.2021 41.1963C54.744 41.7863 55.0355 42.5637 55.0152 43.3646V56.3739C55.0152 57.0927 54.7297 57.7821 54.2214 58.2904C53.7131 58.7986 53.0238 59.0842 52.305 59.0842H21.4078C21.4078 59.0842 19.5105 58.8132 19.2395 57.458V54.2057C19.2344 53.9263 19.308 53.6511 19.4517 53.4115C19.5955 53.1719 19.8037 52.9775 20.0526 52.8505C20.5947 52.5795 20.8657 52.3085 21.4078 52.3085H41.4638C41.7349 52.3085 42.2769 52.0375 42.5479 52.0375C42.7132 51.9085 42.8477 51.7442 42.9415 51.5566C43.0353 51.3691 43.086 51.163 43.09 50.9533V48.5141C43.0222 48.1065 42.8333 47.7288 42.5479 47.43C42.4189 47.2647 42.2547 47.1302 42.0671 47.0365C41.8796 46.9427 41.6735 46.8919 41.4638 46.8879H22.2208C21.8646 46.8975 21.5106 46.8298 21.1831 46.6894C20.8555 46.549 20.5623 46.3394 20.3236 46.0748C19.8624 45.505 19.4963 44.8643 19.2395 44.1776V31.4393C19.1968 31.0374 19.2446 30.6309 19.3794 30.2498C19.5141 29.8687 19.7324 29.5225 20.0182 29.2367C20.3041 28.9509 20.6502 28.7326 21.0313 28.5978C21.4124 28.4631 21.8189 28.4153 22.2208 28.458V28.458Z" fill="white"/>
<path d="M162.887 48.243H156.654C154.485 48.243 154.756 49.8692 154.756 49.8692V51.7664C154.756 52.0374 154.485 52.0374 154.485 52.3084C154.485 52.5795 154.214 52.5795 153.943 52.5795H144.186C143.977 52.5755 143.771 52.5247 143.583 52.431C143.396 52.3372 143.231 52.2027 143.102 52.0374C142.817 51.7386 142.628 51.3609 142.56 50.9533V36.0468C142.572 35.9071 142.633 35.7762 142.733 35.6771C142.832 35.578 142.963 35.5169 143.102 35.5047C143.373 35.2337 143.373 35.2337 143.644 35.2337H152.859C153.943 35.2337 154.485 35.7757 154.485 37.1309V38.486C154.485 38.486 154.214 40.1122 156.383 40.1122H162.616C162.616 40.1122 164.785 40.1122 164.785 38.486V31.7103C164.785 31.1683 164.785 30.8972 164.514 30.6262C164.242 30.3552 164.242 29.8131 163.971 29.5421C163.842 29.3768 163.678 29.2423 163.491 29.1486C163.303 29.0548 163.097 29.0041 162.887 29C162.569 28.7845 162.185 28.6885 161.803 28.729H135.513C135.112 28.6863 134.705 28.7341 134.324 28.8688C133.943 29.0036 133.597 29.2218 133.311 29.5077C133.025 29.7935 132.807 30.1397 132.672 30.5208C132.537 30.9019 132.49 31.3083 132.532 31.7103V56.6449C132.512 57.4457 132.803 58.2231 133.345 58.8131C133.474 58.9784 133.639 59.1129 133.826 59.2066C134.014 59.3004 134.22 59.3512 134.429 59.3552C134.747 59.5707 135.131 59.6668 135.513 59.6262H161.803C162.185 59.6668 162.569 59.5707 162.887 59.3552C163.158 59.0841 163.7 59.0842 163.971 58.8131C164.137 58.6841 164.271 58.5199 164.365 58.3323C164.459 58.1448 164.51 57.9387 164.514 57.729C164.729 57.411 164.825 57.0269 164.785 56.6449V50.4113C164.834 50.1389 164.821 49.8589 164.747 49.5922C164.673 49.3255 164.54 49.0788 164.358 48.8705C164.176 48.6622 163.949 48.4977 163.694 48.389C163.44 48.2804 163.164 48.2305 162.887 48.243V48.243Z" fill="white"/>
<path d="M390.824 35.2327H404.104L398.954 40.6533L405.188 46.6159L417.384 33.8776C417.611 33.6223 417.778 33.3192 417.872 32.9908C417.965 32.6624 417.984 32.317 417.926 31.9804C417.972 31.5148 417.895 31.0455 417.705 30.6181C417.515 30.1906 417.218 29.8196 416.842 29.5411C416.176 28.9137 415.316 28.5315 414.403 28.457H389.739C389.468 28.457 388.926 28.7281 388.926 28.9991C388.636 29.3797 388.436 29.8217 388.342 30.2915C388.248 30.7612 388.262 31.2462 388.384 31.7094C388.362 32.676 388.647 33.6247 389.198 34.4196C389.74 35.2327 390.011 35.2327 390.824 35.2327Z" fill="white"/>
<path d="M200.83 29.2709C200.701 29.1056 200.537 28.9712 200.349 28.8774C200.162 28.7836 199.955 28.7329 199.746 28.7289C199.428 28.5133 199.044 28.4173 198.662 28.4578H172.372C171.99 28.4173 171.606 28.5133 171.288 28.7289C171.017 28.9999 170.475 28.9999 170.204 29.2709C170.039 29.3999 169.904 29.5642 169.81 29.7517C169.716 29.9393 169.666 30.1454 169.662 30.355C169.446 30.673 169.35 31.0571 169.391 31.4391V56.3737C169.37 57.1745 169.662 57.9519 170.204 58.5419C170.333 58.7072 170.497 58.8417 170.685 58.9355C170.872 59.0292 171.078 59.08 171.288 59.084C171.606 59.2996 171.99 59.3956 172.372 59.355H198.662C199.044 59.3956 199.428 59.2996 199.746 59.084C200.017 58.813 200.559 58.813 200.83 58.5419C200.995 58.4129 201.13 58.2487 201.223 58.0611C201.317 57.8736 201.368 57.6675 201.372 57.4578C201.588 57.1398 201.684 56.7557 201.643 56.3737V31.4391C201.643 30.8971 201.643 30.626 201.372 30.355C201.304 29.9475 201.115 29.5697 200.83 29.2709V29.2709ZM191.615 50.9531V51.4952C191.615 51.7662 191.344 51.7662 191.344 52.0373C191.344 52.3083 191.073 52.3083 190.802 52.3083H181.045C180.774 52.3083 180.774 52.0373 180.503 52.0373C180.232 52.0373 180.232 51.7662 180.232 51.4952V36.8597C180.221 36.3986 180.381 35.9498 180.682 35.5996C180.982 35.2494 181.401 35.0225 181.858 34.9625H190.531C190.741 34.9665 190.947 35.0173 191.134 35.111C191.322 35.2048 191.486 35.3392 191.615 35.5046C191.886 35.7756 191.886 35.7756 191.886 36.0466V36.8597L191.615 50.9531V50.9531Z" fill="white"/>
<path d="M207.607 35.2333C208.691 35.2333 209.504 35.7754 209.504 36.5884V56.6445C209.464 57.0266 209.56 57.4106 209.775 57.7286C210.046 57.9997 210.046 58.5417 210.317 58.8127C210.907 59.3546 211.685 59.6461 212.485 59.6258H216.822C217.623 59.6461 218.4 59.3546 218.99 58.8127C219.155 58.6837 219.29 58.5195 219.384 58.3319C219.477 58.1444 219.528 57.9383 219.532 57.7286C219.748 57.4106 219.844 57.0266 219.803 56.6445V37.1305C219.803 35.7754 220.345 35.2333 221.429 35.2333H227.121C228.205 35.2333 228.747 35.7754 228.747 37.1305V56.6445C228.707 57.0266 228.803 57.4106 229.018 57.7286C229.289 57.9997 229.289 58.5417 229.56 58.8127C230.15 59.3546 230.928 59.6461 231.728 59.6258H235.794C236.595 59.6461 237.372 59.3546 237.962 58.8127C238.127 58.6837 238.262 58.5195 238.356 58.3319C238.449 58.1444 238.5 57.9383 238.504 57.7286C238.72 57.4106 238.816 57.0266 238.775 56.6445V36.5884C238.775 36.3174 238.775 36.3174 239.046 36.0464C239.317 35.7754 239.317 35.7754 239.317 35.5043C239.317 35.2333 239.588 35.2333 239.859 35.2333H246.635C246.84 35.2619 247.031 35.3572 247.177 35.5043C247.448 35.7754 247.448 35.7754 247.448 36.0464V56.3735C247.407 56.7555 247.504 57.1396 247.719 57.4576C247.99 57.7286 247.99 58.2707 248.261 58.5417C248.851 59.0836 249.629 59.3751 250.429 59.3548H254.495C255.296 59.3751 256.073 59.0836 256.663 58.5417C256.828 58.4127 256.963 58.2484 257.057 58.0609C257.15 57.8733 257.201 57.6672 257.205 57.4576C257.421 57.1396 257.517 56.7555 257.476 56.3735V31.4389C257.517 31.0569 257.421 30.6728 257.205 30.3548C256.934 30.0838 256.934 29.5417 256.663 29.2707C256.354 28.9359 255.987 28.6604 255.579 28.4576C255.261 28.242 254.877 28.146 254.495 28.1866H236.336C235.98 28.177 235.626 28.2447 235.298 28.3851C234.971 28.5255 234.677 28.7351 234.439 28.9997C233.922 29.5299 233.549 30.1827 233.355 30.8969C233.364 30.5407 233.296 30.1866 233.156 29.8591C233.016 29.5316 232.806 29.2384 232.542 28.9997C232.029 28.5073 231.354 28.2182 230.644 28.1866H217.364C217.54 28.4211 217.635 28.7064 217.635 28.9997C217.635 29.2929 217.54 29.5782 217.364 29.8127C217.364 30.0838 217.093 30.3548 216.822 30.6258C216.715 30.7283 216.586 30.8057 216.446 30.8526C216.305 30.8995 216.156 30.9146 216.009 30.8969H215.196C214.925 30.8969 214.654 30.6258 214.383 30.3548C214.112 30.0838 213.841 29.8127 213.841 29.5417C213.841 29.2707 213.57 28.9997 213.57 28.7286C212.98 28.1868 212.202 27.8952 211.401 27.9155H206.794C206.523 27.9155 206.523 28.1866 206.252 28.1866C205.981 28.1866 205.981 28.4576 205.981 28.7286V32.523C205.981 33.3361 205.981 34.9623 207.607 35.2333Z" fill="white"/>
<path d="M263.439 35.2335C264.523 35.2335 265.336 35.7756 265.336 36.5887V56.6447C265.296 57.0268 265.392 57.4108 265.607 57.7288C265.878 57.9999 265.878 58.5419 266.149 58.813C266.739 59.3548 267.517 59.6463 268.318 59.626H272.383C273.184 59.6463 273.961 59.3548 274.551 58.813C274.717 58.684 274.851 58.5197 274.945 58.3322C275.039 58.1446 275.089 57.9385 275.093 57.7288C275.309 57.4108 275.405 57.0268 275.364 56.6447V37.1307C275.364 35.7756 275.906 35.2335 276.991 35.2335H282.682C283.766 35.2335 284.308 35.7756 284.308 37.1307V56.6447C284.268 57.0268 284.364 57.4108 284.579 57.7288C284.85 57.9999 284.85 58.5419 285.121 58.813C285.711 59.3548 286.489 59.6463 287.29 59.626H291.355C292.156 59.6463 292.933 59.3548 293.523 58.813C293.689 58.684 293.823 58.5197 293.917 58.3322C294.011 58.1446 294.061 57.9385 294.065 57.7288C294.281 57.4108 294.377 57.0268 294.336 56.6447V36.5887C294.377 36.1955 294.57 35.8339 294.874 35.5808C295.178 35.3277 295.568 35.2031 295.962 35.2335H302.196C302.402 35.2622 302.592 35.3574 302.738 35.5046C303.009 35.7756 303.009 35.7756 303.009 36.0466V56.3737C302.969 56.7557 303.065 57.1398 303.28 57.4578C303.551 57.7288 303.551 58.2709 303.822 58.5419C304.412 59.0838 305.19 59.3753 305.991 59.355H310.327C310.683 59.3646 311.037 59.2968 311.365 59.1565C311.692 59.0161 311.985 58.8065 312.224 58.5419C312.389 58.4129 312.524 58.2487 312.618 58.0611C312.711 57.8736 312.762 57.6675 312.766 57.4578C312.982 57.1398 313.078 56.7557 313.037 56.3737V31.4391C313.037 30.8971 313.037 30.626 312.766 30.355C312.495 30.084 312.495 29.5419 311.953 29.2709C311.363 28.729 310.586 28.4375 309.785 28.4578H291.626C291.27 28.4483 290.916 28.516 290.588 28.6563C290.261 28.7967 289.968 29.0064 289.729 29.2709C289.212 29.8011 288.839 30.454 288.645 31.1681C288.654 30.8119 288.587 30.4579 288.446 30.1304C288.306 29.8028 288.096 29.5096 287.832 29.2709C287.319 28.7785 286.645 28.4895 285.934 28.4578H272.654C272.272 28.4173 271.888 28.5133 271.57 28.7289C271.299 28.9999 271.028 28.9999 270.757 29.2709C270.492 29.5096 270.283 29.8028 270.142 30.1304C270.002 30.4579 269.934 30.8119 269.944 31.1681C269.984 30.7861 269.888 30.402 269.673 30.084C269.402 29.813 269.402 29.5419 268.86 29.2709C268.27 28.729 267.492 28.4375 266.691 28.4578H262.897C262.626 28.4578 262.626 28.7289 262.355 28.7289C262.084 28.7289 262.084 28.9999 262.084 29.2709V33.0653C262.084 33.3363 262.084 34.9625 263.439 35.2335Z" fill="white"/>
<path d="M414.942 52.8506H399.493L401.932 50.4113L395.699 50.6824V44.4487L386.213 54.4768C385.948 54.7155 385.739 55.0087 385.598 55.3362C385.458 55.6637 385.39 56.0178 385.4 56.374C385.401 56.8336 385.498 57.2878 385.685 57.7078C385.872 58.1278 386.144 58.5043 386.484 58.8132C386.793 59.148 387.16 59.4235 387.568 59.6263C387.984 59.8454 388.455 59.9395 388.923 59.8973H416.026C416.236 59.8933 416.442 59.8426 416.629 59.7488C416.817 59.655 416.981 59.5206 417.11 59.3553C417.389 58.9685 417.582 58.5265 417.675 58.0589C417.769 57.5914 417.761 57.1092 417.652 56.645V55.5609C417.741 55.187 417.733 54.7965 417.629 54.4266C417.524 54.0567 417.327 53.7198 417.055 53.448C416.783 53.1762 416.446 52.9786 416.076 52.874C415.706 52.7694 415.316 52.7614 414.942 52.8506V52.8506Z" fill="white"/>
<path d="M349.081 49.056H341.763C341.492 49.056 341.492 49.327 341.221 49.327C340.95 49.327 340.95 49.598 340.95 49.869V51.7662C340.95 52.3083 340.95 52.3083 340.408 52.5793C340.002 52.8252 339.523 52.921 339.053 52.8503H330.38C329.838 52.8503 329.567 52.5793 329.025 52.3083C328.483 52.0373 328.754 52.0373 328.754 51.7662V45.8036H347.997C348.421 45.8249 348.844 45.7363 349.224 45.5463C349.603 45.3564 349.928 45.0716 350.165 44.7195C350.5 44.4107 350.776 44.0433 350.978 43.6354C351.194 43.3174 351.29 42.9333 351.249 42.5513V31.4391C351.249 30.8971 351.249 30.626 350.978 30.355C350.707 30.084 350.707 29.5419 350.165 29.2709C349.575 28.729 348.798 28.4375 347.997 28.4578H321.707C321.325 28.4173 320.941 28.5133 320.623 28.7289C320.352 28.9999 319.81 28.9999 319.539 29.2709C319.374 29.3999 319.239 29.5642 319.146 29.7517C319.052 29.9393 319.001 30.1454 318.997 30.355C318.782 30.673 318.686 31.0571 318.726 31.4391V56.3737C318.683 56.7757 318.731 57.1821 318.866 57.5632C319.001 57.9444 319.219 58.2905 319.505 58.5763C319.791 58.8622 320.137 59.0805 320.518 59.2152C320.899 59.3499 321.305 59.3977 321.707 59.355H347.997C348.798 59.3753 349.575 59.0838 350.165 58.5419C350.5 58.2331 350.776 57.8657 350.978 57.4578C351.194 57.1398 351.29 56.7557 351.249 56.3737V50.1401C350.978 49.0559 349.081 49.056 349.081 49.056ZM328.754 37.1307C328.754 35.7756 329.296 35.2335 330.651 35.2335H339.324C340.408 35.2335 340.95 35.7756 340.95 37.1307V38.2148C340.95 39.2989 340.408 40.112 339.324 40.112H329.838C329.633 40.0834 329.442 39.9882 329.296 39.841C329.025 39.57 329.025 39.57 329.025 39.2989V37.1307H328.754Z" fill="white"/>
<path d="M397.056 49.0553V36.0459L409.795 48.5132L397.056 49.0553Z" fill="white"/>
<path d="M421.72 18.4299C422.681 18.4468 423.619 18.7281 424.43 19.243C425.25 19.6558 425.915 20.3209 426.327 21.1402C426.878 21.9351 427.162 22.8838 427.141 23.8504C427.124 24.8114 426.842 25.7491 426.327 26.5607C425.838 27.3212 425.191 27.9681 424.43 28.4579C423.635 29.0082 422.687 29.2928 421.72 29.271C420.759 29.2541 419.821 28.9728 419.01 28.4579C418.249 27.9681 417.602 27.3212 417.113 26.5607C416.562 25.7657 416.278 24.817 416.3 23.8504C416.316 22.8895 416.598 21.9517 417.113 21.1402C417.525 20.3209 418.19 19.6558 419.01 19.243C419.805 18.6927 420.753 18.4081 421.72 18.4299V18.4299ZM421.72 19.243C420.971 19.2944 420.237 19.4779 419.552 19.785C419.168 19.9015 418.819 20.1108 418.535 20.3944C418.251 20.6781 418.042 21.0273 417.926 21.4112C417.57 22.0785 417.384 22.8231 417.384 23.5794C417.384 24.3357 417.57 25.0803 417.926 25.7476C418.042 26.1315 418.251 26.4807 418.535 26.7644C418.819 27.048 419.168 27.2574 419.552 27.3738C420.219 27.7297 420.964 27.9159 421.72 27.9159C422.476 27.9159 423.221 27.7297 423.888 27.3738C424.272 27.2574 424.621 27.048 424.905 26.7644C425.189 26.4807 425.398 26.1315 425.514 25.7476C425.821 25.0625 426.005 24.3285 426.056 23.5794C426.038 22.8255 425.853 22.0849 425.514 21.4112C425.398 21.0273 425.189 20.6781 424.905 20.3944C424.621 20.1108 424.272 19.9015 423.888 19.785C423.193 19.5083 422.464 19.326 421.72 19.243V19.243ZM419.281 26.5607V20.8691H421.178C421.647 20.7984 422.127 20.8943 422.533 21.1402C422.804 21.1402 423.075 21.4112 423.346 21.6822C423.449 21.7893 423.526 21.9178 423.573 22.0583C423.62 22.1989 423.635 22.3482 423.617 22.4953V23.0374C423.617 23.3084 423.346 23.3084 423.346 23.5794C423.346 23.8504 423.075 23.8504 422.804 23.8504H422.262C422.533 23.8504 422.533 24.1215 422.804 24.1215C423.075 24.1215 423.346 24.9345 423.617 25.2056L424.43 26.2897H423.346L422.804 25.4766C422.533 24.9346 422.262 24.6635 421.991 24.1215C421.884 24.019 421.755 23.9416 421.615 23.8947C421.474 23.8479 421.325 23.8327 421.178 23.8504H420.636V26.2897L419.281 26.5607ZM420.365 23.3084H421.449C421.831 23.3489 422.215 23.2529 422.533 23.0374L422.804 22.7663V21.9532C422.804 21.6822 422.533 21.6822 422.262 21.6822H420.365V23.3084Z" fill="white"/>
<path d="M355.859 35.2326C356.943 35.2326 357.756 35.7746 357.756 36.5877V56.6438C357.716 57.0258 357.812 57.4099 358.027 57.7279C358.298 57.9989 358.298 58.541 358.569 58.812C358.84 59.083 359.111 59.3541 359.382 59.3541C359.7 59.5696 360.084 59.6657 360.466 59.6251H364.803C365.185 59.6657 365.569 59.5696 365.887 59.3541C366.158 59.083 366.7 59.083 366.971 58.812C367.136 58.683 367.271 58.5188 367.365 58.3312C367.458 58.1437 367.509 57.9375 367.513 57.7279C367.729 57.4099 367.825 57.0258 367.784 56.6438V37.1298C367.784 35.7746 368.326 35.2326 369.41 35.2326H372.121C372.33 35.2366 372.536 35.2873 372.724 35.3811C372.911 35.4749 373.076 35.6093 373.205 35.7746C373.545 36.145 373.738 36.627 373.747 37.1298V38.4849C373.747 38.7559 374.018 38.7559 374.018 39.027C374.018 39.298 374.289 39.298 374.56 39.298H382.42C382.42 39.298 384.046 39.569 383.775 37.6718V31.4382C383.775 30.8961 383.775 30.6251 383.504 30.3541C383.233 30.083 383.233 29.541 382.691 29.27C382.382 28.9352 382.014 28.6596 381.607 28.4569C381.289 28.2413 380.905 28.1453 380.523 28.1858H365.345C364.963 28.1453 364.579 28.2413 364.261 28.4569C363.99 28.7279 363.719 28.7279 363.448 28.9989C362.931 29.5291 362.558 30.182 362.364 30.8961C362.404 30.5141 362.308 30.13 362.093 29.812C361.822 29.541 361.822 29.27 361.28 28.9989C361.041 28.7344 360.748 28.5247 360.42 28.3844C360.093 28.244 359.738 28.1763 359.382 28.1858H354.504C354.233 28.1858 354.233 28.4569 353.962 28.4569C353.691 28.4569 353.691 28.7279 353.691 28.9989V32.7933C354.233 33.3354 354.504 35.2326 355.859 35.2326V35.2326Z" fill="white"/>
</svg>
